# xmcd
#
# Track frame offsets:
#	182
#	13777
#	27957
#	37460
#	48080
#	65092
#	78640
#	90690
#	101712
#	112192
#	123290
#	135615
#	146555
#	156355
#	168142
#	178332
#	188825
#	200592
#	213187
#	226035
#	236807
#
# Disc length: 3336 seconds
# Revision: 9
# Processed by: cddbd v1.5.2PL0 Copyright (c) Steve Scherf et al.
# Submitted via: dBpowerAMP V12.0
#
DISCID=310d0615
DTITLE=Various Artist - The Buck Owens Collection (1959-1990), Disc 3
DYEAR=1992
DGENRE=Country
TTITLE0=Buck Owens - Tall Dark Stranger
TTITLE1=Buck Owens - Big in Vegas
TTITLE2=Susan Raye - We're Gonna Get Together
TTITLE3=Buck Owens - The Kansas City Song
TTITLE4=Susan Raye - The Great White Horse
TTITLE5=Buck Owens - I Wouldn't Live in New York City (If They Gave Me the Whole Dang Town)
TTITLE6=Buck Owens - Bridge over Troubled Water
TTITLE7=Buck Owens - Ruby (Are You Mad)
TTITLE8=Buck Owens - Rollin' in My Sweet Baby's Arms
TTITLE9=Buck Owens - I'll Still Be Waiting for You
TTITLE10=Buck Owens - Made in Japan
TTITLE11=Buck Owens - You Ain't Gonna Have Ol' Buck to Kick Around No More
TTITLE12=Buck Owens - Ain't It Amazing, Gracie
TTITLE13=Buck Owens - Streets of Bakersfield
TTITLE14=Buck Owens - Big Game Hunter
TTITLE15=Buck Owens - On the Cover of the Music City News
TTITLE16=Buck Owens - It's a Monster's Holiday
TTITLE17=Buck Owens - Play "Together Again" Again
TTITLE18=Dwight Yoakam - Streets of Bakersfield
TTITLE19=Buck Owens - Hot Dog
TTITLE20=Ringo Starr - Act Naturally
EXTD=
EXTT0=
EXTT1=
EXTT2=
EXTT3=
EXTT4=
EXTT5=
EXTT6=
EXTT7=
EXTT8=
EXTT9=
EXTT10=
EXTT11=
EXTT12=
EXTT13=
EXTT14=
EXTT15=
EXTT16=
EXTT17=
EXTT18=
EXTT19=
EXTT20=
PLAYORDER=
